# xmcd
#
# Track frame offsets:
#	150
#	33941
#	68374
#	97529
#	112429
#	138581
#	180524
#	194780
#	218020
#	255762
#	286052
#	314590
#	329649
#
# Disc length: 4531 seconds
#
# Revision: 1
# Processed by: cddbd v1.5.2PL0 Copyright (c) Steve Scherf et al.
# Submitted via: EZCDAudioConverter 4.0.2.1
#
DISCID=ba11b10d
DTITLE=Livin' Blues - Live '75
DYEAR=1975
DGENRE=Blues
TTITLE0=Black Spider Woman
TTITLE1=I'm a Rambler
TTITLE2=(I'm Your) Hoochie Coochie Man
TTITLE3=Crazy Joe
TTITLE4=I Wonder
TTITLE5=L. B. Boogie
TTITLE6=Boney Marony
TTITLE7=Rock and Roll Hoochie Koo
TTITLE8=I'm Coming Home
TTITLE9=See My Baby Drive
TTITLE10=Back Stage
TTITLE11=Boogie Woogie Woman
TTITLE12=Richochet
EXTD=
EXTT0=
EXTT1=
EXTT2=
EXTT3=
EXTT4=
EXTT5=
EXTT6=
EXTT7=
EXTT8=
EXTT9=
EXTT10=
EXTT11=
EXTT12=
PLAYORDER=
